<?xml version="1.0" standalone="no"?>
<!DOCTYPE svg PUBLIC "-//W3C//DTD SVG 20010904//EN"
 "http://www.w3.org/TR/2001/REC-SVG-20010904/DTD/svg10.dtd">
<svg version="1.0" xmlns="http://www.w3.org/2000/svg"
 width="200.000000pt" height="200.000000pt" viewBox="0 0 200.000000 200.000000"
 preserveAspectRatio="xMidYMid meet">

<g transform="translate(0.000000,200.000000) scale(0.100000,-0.100000)"
fill="#000000" stroke="none">
<path d="M1175 1799 c-340 -138 -362 -149 -374 -175 -6 -14 -11 -35 -11 -47 0
-39 189 -491 213 -509 12 -10 36 -18 52 -18 17 0 134 43 260 95 251 103 281
123 272 179 -10 55 -213 541 -228 543 -8 1 -90 -30 -184 -68z"/>
<path d="M393 1479 c-150 -61 -271 -115 -268 -118 2 -4 51 -124 109 -267 111
-271 131 -304 185 -304 15 0 119 38 232 84 112 46 214 86 225 90 39 12 74 53
74 86 0 27 -97 280 -172 450 -51 114 -55 114 -385 -21z"/>
<path d="M1470 1176 c-41 -17 -142 -59 -224 -91 -164 -66 -196 -88 -196 -135
0 -26 85 -248 170 -445 51 -119 51 -119 384 16 152 61 274 115 271 118 -2 4
-51 124 -109 267 -113 277 -131 305 -189 303 -18 0 -66 -15 -107 -33z"/>
<path d="M685 855 c-234 -96 -275 -121 -275 -166 0 -21 206 -537 220 -553 9
-9 38 1 325 118 220 90 255 113 255 165 0 42 -187 493 -213 513 -12 10 -35 17
-52 17 -16 0 -133 -42 -260 -94z m284 18 c24 -21 181 -398 181 -434 -1 -51 -8
-55 -312 -179 -95 -39 -175 -67 -179 -63 -7 8 -64 142 -151 361 -61 150 -65
145 188 249 109 45 211 82 225 82 15 1 36 -7 48 -16z"/>
</g>
</svg>
